<?xml version="1.0" standalone="no"?>
<!DOCTYPE svg PUBLIC "-//W3C//DTD SVG 20010904//EN"
 "http://www.w3.org/TR/2001/REC-SVG-20010904/DTD/svg10.dtd">
<svg version="1.0" xmlns="http://www.w3.org/2000/svg"
 width="16.000000pt" height="16.000000pt" viewBox="0 0 16.000000 16.000000"
 preserveAspectRatio="xMidYMid meet">
<metadata>
Created by potrace 1.11, written by Peter Selinger 2001-2013
</metadata>
<g transform="translate(0.000000,16.000000) scale(0.003125,-0.003125)"
fill="#000000" stroke="none">
<path d="M1064 3816 c12 -182 70 -447 131 -611 46 -121 122 -258 194 -348 l70
-87 -9 -57 c-43 -258 38 -474 289 -775 97 -116 329 -342 481 -469 140 -117
327 -259 340 -259 13 0 200 142 340 259 152 127 384 353 481 469 251 301 332
517 289 775 l-9 57 70 87 c72 90 148 227 194 348 61 164 119 429 131 611 l7
96 -54 -7 c-89 -12 -347 -80 -454 -120 -215 -80 -410 -194 -536 -312 l-67 -64
-104 23 c-149 32 -427 32 -576 0 l-104 -23 -67 64 c-126 118 -321 232 -536
312 -107 40 -365 108 -454 120 l-54 7 7 -96z m248 -55 c307 -80 575 -217 742
-383 l81 -79 85 20 c169 40 345 51 510 31 47 -6 123 -20 170 -31 l85 -20 81
79 c129 128 313 237 539 320 123 45 331 99 342 89 10 -11 -16 -188 -47 -316
-37 -152 -82 -276 -136 -381 -40 -78 -122 -200 -134 -200 -3 0 -22 33 -43 74
-61 119 -164 222 -312 310 l-56 35 73 51 c40 29 116 73 168 100 91 45 277 120
300 120 7 0 9 -13 5 -37 -29 -179 -70 -296 -145 -410 l-48 -73 38 -30 38 -30
35 47 c112 154 187 394 187 595 0 61 -2 69 -17 64 -10 -3 -47 -12 -81 -21
-161 -41 -364 -129 -497 -215 -75 -50 -215 -174 -215 -191 0 -5 34 -24 76 -43
177 -82 302 -195 373 -337 33 -65 39 -85 29 -96 -6 -8 -48 -36 -92 -64 -90
-55 -238 -116 -366 -150 -47 -12 -86 -24 -88 -25 -5 -3 9 -69 17 -83 6 -9 29
-6 99 13 178 51 297 100 409 172 l53 34 6 -26 c4 -14 4 -71 2 -127 -6 -116
-34 -201 -108 -323 -137 -224 -473 -564 -816 -825 l-94 -72 -94 72 c-343 261
-679 601 -816 825 -74 122 -102 207 -108 323 -2 56 -2 113 2 127 l6 26 53 -34
c112 -72 231 -121 409 -172 70 -19 93 -22 99 -13 8 14 22 80 17 83 -2 1 -41
13 -88 25 -128 34 -276 95 -366 150 -44 28 -86 56 -92 64 -10 11 -4 31 29 96
71 142 196 255 373 337 42 19 76 38 76 43 0 17 -140 141 -215 191 -133 86
-336 174 -497 215 -34 9 -71 18 -80 21 -16 5 -18 -3 -18 -64 0 -201 75 -441
187 -595 l35 -47 39 30 38 31 -35 48 c-51 72 -109 204 -132 301 -28 117 -35
170 -22 170 23 0 210 -75 300 -120 52 -27 128 -71 168 -100 l73 -51 -56 -35
c-148 -88 -251 -191 -312 -310 -21 -41 -40 -74 -43 -74 -12 0 -94 122 -134
200 -75 144 -138 348 -171 550 -19 120 -19 150 -1 150 8 0 66 -13 128 -29z"/>
<path d="M2010 2907 c0 -59 36 -139 82 -184 47 -46 118 -82 160 -83 15 0 29
-3 31 -7 2 -5 -8 -87 -24 -183 -41 -259 -45 -321 -25 -375 33 -84 118 -132
219 -122 28 2 61 13 78 26 l29 22 29 -22 c17 -13 50 -24 78 -26 101 -10 186
38 219 122 20 54 16 116 -25 375 -16 96 -26 178 -24 183 2 4 16 7 31 7 42 1
113 37 160 83 46 45 82 125 82 184 l0 36 -62 -7 c-171 -17 -286 -89 -314 -195
-11 -46 -10 -69 22 -263 18 -117 37 -248 40 -290 7 -76 6 -77 -24 -107 -25
-25 -39 -31 -75 -31 -49 0 -72 18 -63 48 4 11 36 53 71 93 l65 74 -105 3 c-58
1 -152 1 -210 0 l-105 -3 65 -74 c35 -40 67 -82 71 -93 9 -30 -14 -48 -63 -48
-36 0 -50 6 -75 31 -30 30 -31 31 -24 107 3 42 22 173 40 290 32 194 33 217
22 263 -28 106 -143 178 -313 195 l-63 7 0 -36z m198 -106 c20 -10 46 -28 56
-40 19 -21 19 -21 -4 -21 -29 0 -106 44 -114 65 -8 21 16 19 62 -4z m766 4
c-8 -21 -85 -65 -114 -65 -23 0 -23 0 -4 21 39 43 130 77 118 44z"/>
</g>
</svg>
