<svg xmlns="http://www.w3.org/2000/svg" viewBox="0 0 172 244"><defs><style>.cls-1{fill:#4ae871;}</style></defs><path class="cls-1" d="M100.86,228.6H97.27a62.25,62.25,0,0,1,30.58-53.43l1.82,3.1A58.64,58.64,0,0,0,100.86,228.6Z"/><path class="cls-1" d="M62.8,231a51.63,51.63,0,0,1-51.57-51.57c0-20.16,12.19-39.07,30.34-47.06L43,135.66c-16.87,7.43-28.2,25-28.2,43.77a48,48,0,0,0,48,48h94.36a58.93,58.93,0,0,0-58.83-57.06A111.46,111.46,0,0,0,48,182.1l-1.63-3.2a115.06,115.06,0,0,1,52-12.14,62.52,62.52,0,0,1,62.45,62.45V231Z"/><path class="cls-1" d="M99.68,139.55V136a26.69,26.69,0,0,0,26.66-26.66V75.54h3.59V109.3A30.28,30.28,0,0,1,99.68,139.55Z"/><path class="cls-1" d="M92,169.38l-3.41-1.13C99,137.06,105.39,96.44,109.29,68.6c1-7.23,8.29-12.9,16.56-12.9h5.2a10.82,10.82,0,1,1,0,21.63h-8.8V73.74h8.8a7.22,7.22,0,1,0,0-14.45h-5.2c-6.52,0-12.23,4.31-13,9.8C108.93,97.08,102.5,137.92,92,169.38Z"/><path class="cls-1" d="M52.69,177.71s-2-6.25-2.73-8.33C39.45,137.54,33.05,96.9,29.15,69.1l3.56-.5c3.88,27.66,10.24,68.09,20.66,99.65.69,2.08,2.74,8.34,2.74,8.34Z"/><path class="cls-1" d="M66.07,87.19a9.59,9.59,0,0,1-2.59-.36,6.87,6.87,0,0,1-5.17-7.32c.13-3.15.76-7,1.9-14.05.21-1.27.43-2.64.67-4.13-9.75-.85-10.56-9.34-10.57-9.43l-.18-2.16,2.15.22c3.61.37,8.44,1.49,10.9,4.7a7.7,7.7,0,0,1,1.42,6.14c-.31,1.93-.59,3.66-.85,5.23A131.65,131.65,0,0,0,61.9,79.66a3.31,3.31,0,0,0,2.55,3.72A4.36,4.36,0,0,0,68.16,83a.72.72,0,0,0,.26-.73v-.08A9.62,9.62,0,0,0,66,78.38l-2.94-3h16l-3,3A9.67,9.67,0,0,0,73.7,82.2l0,.12a.71.71,0,0,0,.26.71,4.36,4.36,0,0,0,3.7.34,3.31,3.31,0,0,0,2.55-3.72,131.16,131.16,0,0,0-1.86-13.59c-.26-1.58-.54-3.32-.85-5.26a7.7,7.7,0,0,1,1.42-6.14c2.46-3.21,7.29-4.33,10.9-4.7L92,49.74l-.18,2.16c0,.09-.82,8.58-10.57,9.43l.67,4.16c1.14,7,1.77,10.88,1.9,14a6.87,6.87,0,0,1-5.17,7.32c-2.65.75-5.41.32-7-1.09a4.65,4.65,0,0,1-.54-.55,4.64,4.64,0,0,1-.54.55A6.79,6.79,0,0,1,66.07,87.19ZM54.67,54c.84,1.54,2.58,3.32,6.18,3.74a3.8,3.8,0,0,0-.5-.86C59.34,55.54,57.37,54.55,54.67,54Zm32.77,0c-2.7.59-4.67,1.58-5.67,2.88a3.84,3.84,0,0,0-.5.86C84.85,57.28,86.59,55.5,87.43,54Z"/><path class="cls-1" d="M71.05,115.36l-1-.74c-1.63-1.15-39.86-28.48-41.19-48.53C27.91,52.42,33.77,42.3,46.23,36c-2.9-2.49-9.54-7.23-21-10.57.39,4.29,1.88,13.4,7.48,19.68L30,47.46C21.59,38,21.49,23.61,21.49,23V20.68l2.25.58c19.07,4.93,26.68,13.68,27,14l1.56,1.84-2.2,1c-12.76,5.62-18.55,14.7-17.68,27.74,1.11,16.64,32.49,40.54,38.64,45.08,6.16-4.54,37.54-28.45,38.64-45.08.87-13-4.91-22.12-17.68-27.74l-2.2-1,1.56-1.84c.31-.37,7.92-9.12,27-14l2.25-.58V23c0,.61-.1,15-8.53,24.46l-2.68-2.39c5.62-6.29,7.1-15.4,7.48-19.68-11.47,3.34-18.11,8.08-21,10.57,12.47,6.33,18.32,16.45,17.41,30.13-1.33,20-39.56,47.37-41.19,48.53Z"/><path class="cls-1" d="M88.14,67.58l-.9-3.48C96,61.85,104.37,59.26,111,52.42c9.68-10,12.3-28.6,12.94-35.07C110.48,20,101.58,24.57,96.4,28,90.5,31.9,88,35.24,88,35.27l-.74,1L86,35.94a54.15,54.15,0,0,0-30,0l-1.22.36-.74-1S51.6,31.9,45.7,28c-5.18-3.43-14.07-8-27.54-10.64.63,6.47,3.26,25.08,12.94,35.07,6.63,6.84,15,9.43,23.76,11.68L54,67.58c-9.25-2.38-18.16-5.14-25.44-12.65C15.78,41.79,14.44,16.32,14.39,15.24L14.28,13l2.21.39C42,17.88,53.25,28.78,56.19,32.17a57.88,57.88,0,0,1,29.71,0c2.94-3.39,14.16-14.29,39.7-18.78l2.21-.39-.11,2.24c-.05,1.08-1.39,26.54-14.13,39.68C106.3,62.43,97.39,65.19,88.14,67.58Z"/></svg>