<svg xmlns="http://www.w3.org/2000/svg" viewBox="0 0 172 244"><defs><style>.cls-1{fill:#4ae871;}</style></defs><path class="cls-1" d="M100.86,228.61H97.27a62.26,62.26,0,0,1,30.58-53.44l1.82,3.1A58.65,58.65,0,0,0,100.86,228.61Z"/><path class="cls-1" d="M160.78,231h-98A51.59,51.59,0,0,1,40,133.16l1.59,3.22a48,48,0,0,0,21.23,91h94.37a58.93,58.93,0,0,0-58.84-57.07A111.47,111.47,0,0,0,48,182.09l-1.63-3.2a115.08,115.08,0,0,1,52-12.14,62.53,62.53,0,0,1,62.46,62.46Z"/><path class="cls-1" d="M70.63,115.09l-1-.74C68,113.2,29.84,85.95,28.51,66c-.91-13.64,4.93-23.74,17.36-30.05-2.9-2.48-9.51-7.2-20.93-10.53.39,4.28,1.88,13.36,7.46,19.61l-2.68,2.39C21.3,38,21.2,23.59,21.2,23V20.66l2.25.58c19,4.92,26.61,13.64,26.92,14l1.56,1.84-2.2,1C37,43.67,31.23,52.71,32.1,65.72c1.1,16.59,32.39,40.42,38.53,44.95,6.14-4.53,37.43-28.37,38.53-44.95.86-13-4.9-22.05-17.63-27.66l-2.2-1,1.56-1.84c.31-.37,7.9-9.09,26.92-14l2.25-.58V23c0,.61-.1,15-8.51,24.4L108.86,45c5.58-6.25,7.07-15.33,7.46-19.61-11.49,3.34-18.07,8.05-20.94,10.53,12.44,6.31,18.28,16.41,17.37,30.05-1.33,20-39.45,47.25-41.08,48.4Z"/><path class="cls-1" d="M87.67,67.44,86.78,64c8.71-2.24,17.08-4.82,23.69-11.64,9.66-10,12.27-28.51,12.9-35C96.85,22.61,87.64,35.08,87.55,35.21l-.74,1-1.22-.36a54,54,0,0,0-29.91,0l-1.22.36-.74-1S51.23,31.86,45.34,28c-5.16-3.42-14-7.94-27.48-10.61.56,6.47,3,25.23,12.9,34.93,5.8,5.68,10.36,7,15.18,8.42a42.38,42.38,0,0,1,9,3.42l-1.72,3.16a38.91,38.91,0,0,0-8.25-3.13c-5-1.47-10.24-3-16.68-9.3C15.18,42.06,14.15,16.31,14.11,15.22L14,13l2.18.38c25.47,4.48,36.66,15.35,39.59,18.73a57.73,57.73,0,0,1,29.63,0C88.38,28.74,99.57,17.87,125,13.39l2.21-.39-.11,2.24c-.05,1.07-1.39,26.47-14.09,39.57C105.78,62.31,96.9,65.06,87.67,67.44Z"/><path class="cls-1" d="M65.58,87A9.58,9.58,0,0,1,63,86.64a6.85,6.85,0,0,1-5.16-7.31c.13-3.14.76-7,1.9-14l.67-4.12c-9.72-.85-10.53-9.32-10.54-9.41l-.18-2.16,2.15.22c3.61.37,8.42,1.49,10.87,4.69a7.68,7.68,0,0,1,1.42,6.13c-.31,1.92-.59,3.66-.85,5.23a131,131,0,0,0-1.85,13.58A3.3,3.3,0,0,0,64,83.18a4.34,4.34,0,0,0,3.69-.34.71.71,0,0,0,.25-.72V82c-.17-1.2-1.69-3.09-2.4-3.82l-3-3h16.1l-3,3A9.64,9.64,0,0,0,73.28,82l-1.78-.14h0l1.76.24a.71.71,0,0,0,.25.72,4.34,4.34,0,0,0,3.69.34,3.3,3.3,0,0,0,2.54-3.7A131,131,0,0,0,77.89,65.9c-.26-1.57-.54-3.3-.85-5.23a7.68,7.68,0,0,1,1.42-6.13c2.46-3.2,7.27-4.32,10.87-4.69l2.15-.22-.18,2.16c0,.09-.82,8.55-10.54,9.41l.67,4.12c1.14,7,1.77,10.87,1.9,14a6.85,6.85,0,0,1-5.16,7.31c-2.65.74-5.4.32-7-1.09a4.57,4.57,0,0,1-.57-.59,4.62,4.62,0,0,1-.57.59A6.78,6.78,0,0,1,65.58,87Zm4.82-8.25.19.34.19-.34ZM54.22,53.86c.84,1.53,2.57,3.29,6.14,3.72a3.78,3.78,0,0,0-.5-.85C58.87,55.44,56.91,54.45,54.22,53.86Zm32.73,0c-2.69.58-4.65,1.57-5.64,2.87a3.78,3.78,0,0,0-.49.85C84.38,57.15,86.12,55.39,87,53.86Z"/><path class="cls-1" d="M99.68,139.54v-3.59a26.69,26.69,0,0,0,26.66-26.66V75.52h3.59v33.76A30.29,30.29,0,0,1,99.68,139.54Z"/><path class="cls-1" d="M92,169.38l-3.41-1.13C99,137.05,105.39,96.43,109.29,68.58c1-7.35,8.15-12.9,16.56-12.9h5.21a10.82,10.82,0,0,1,0,21.63h-8.8V73.73h8.8a7.22,7.22,0,0,0,0-14.45h-5.21c-6.52,0-12.23,4.31-13,9.8C108.93,97.07,102.51,137.91,92,169.38Z"/><path class="cls-1" d="M52.69,177.71s-2-6.25-2.73-8.33C39.44,137.53,33,96.89,29.15,69.08l3.56-.5c3.88,27.67,10.24,68.1,20.66,99.66.69,2.08,2.74,8.34,2.74,8.34Z"/></svg>