<svg xmlns="http://www.w3.org/2000/svg" viewBox="0 0 126 114"><path d="M63,111.77l-.9-.64C60.34,109.9,19.22,80.5,17.79,59c-1-14.78,5.44-25.67,19.1-32.41-3-2.63-10.41-8.22-23.8-12,.35,4.4,1.84,14.88,8.22,22L19,38.7C10,28.61,9.88,13.2,9.88,12.55v-2l1.94.5c20.47,5.29,28.6,14.65,28.94,15l1.35,1.59-1.9.84C26.26,34.66,19.94,44.58,20.89,58.84,22.11,77.18,56.91,103.5,63,108c6.07-4.46,40.88-30.78,42.1-49.11.95-14.26-5.37-24.18-19.31-30.33l-1.9-.84,1.35-1.59c.34-.4,8.47-9.75,28.94-15l1.94-.5v2c0,.65-.1,16.05-9.11,26.15l-2.31-2.07c6.38-7.14,7.87-17.63,8.22-22C99.5,18.42,92,24,89.08,26.64c13.66,6.74,20.08,17.63,19.1,32.41-1.43,21.45-42.55,50.85-44.3,52.09Z"/><path d="M81.34,60.29l-.77-3C90,54.85,99.16,52,106.39,44.58,117.21,33.43,119.92,12.47,120.52,6,91.26,11.64,81.09,25.43,81,25.57l-.64.89-1.06-.31a58.86,58.86,0,0,0-32.6,0l-1.06.31L45,25.57s-2.7-3.67-9.11-7.92C30.19,13.87,20.36,8.86,5.43,6c.52,6.5,3,27.71,14.12,38.58,6.35,6.22,11.33,7.67,16.59,9.2a45.55,45.55,0,0,1,9.62,3.67l-1.48,2.73a42.43,42.43,0,0,0-9-3.42c-5.4-1.58-11-3.2-17.89-10C3.35,33,2.25,5.31,2.21,4.14L2.14,2.23,4,2.56C32,7.48,44,19.52,46.82,22.89a62.06,62.06,0,0,1,32.34,0C82,19.52,94,7.48,121.95,2.56l1.91-.34-.09,1.94c-.06,1.16-1.5,28.51-15.14,42.58C100.83,54.78,91.27,57.74,81.34,60.29Z"/><path d="M68.36,81.46A6.93,6.93,0,0,1,63.82,80a4.45,4.45,0,0,1-.88-1,4.43,4.43,0,0,1-.88,1c-1.65,1.44-4.49,1.87-7.23,1.1a7,7,0,0,1-5.29-7.52c.14-3.37.82-7.54,2-15.11.24-1.49.51-3.11.79-4.89C44,53,41.18,47,40.91,43.71l-.15-1.86,1.86.19c3.83.39,8.92,1.57,11.5,4.92a7.94,7.94,0,0,1,1.46,6.33c-.34,2.09-.64,4-.92,5.66-1.21,7.45-1.88,11.55-2,14.73a4,4,0,0,0,3,4.4A5,5,0,0,0,60,77.64a1.16,1.16,0,0,0,.41-1.13l0-.12c-.21-1.48-2.07-3.68-2.7-4.33l-2.56-2.63H70.73l-2.56,2.63c-.94,1-2.51,3-2.7,4.34l0,.12a1.16,1.16,0,0,0,.41,1.12,5,5,0,0,0,4.36.45,4,4,0,0,0,3-4.4c-.13-3.19-.8-7.3-2-14.75-.28-1.69-.58-3.57-.91-5.64A7.94,7.94,0,0,1,71.78,47c2.57-3.35,7.67-4.53,11.5-4.92l1.86-.19L85,43.71c-.27,3.29-3,9.28-11.47,9.85.29,1.77.55,3.39.79,4.88,1.23,7.58,1.91,11.75,2.05,15.12a7,7,0,0,1-5.29,7.52A10,10,0,0,1,68.36,81.46ZM62,72.53a12.22,12.22,0,0,1,.91,1.64,12.26,12.26,0,0,1,.91-1.64ZM81.32,45.45c-3.38.63-5.86,1.81-7.08,3.4a4.45,4.45,0,0,0-.79,1.61c3.11-.23,5.43-1.36,6.92-3.36A8.09,8.09,0,0,0,81.32,45.45Zm-36.76,0c.84,1.93,2.89,4.62,7.88,5a4.45,4.45,0,0,0-.79-1.61C50.43,47.25,48,46.08,44.56,45.45Z"/></svg>