<svg xmlns="http://www.w3.org/2000/svg" viewBox="0 0 126 114"><path d="M60.56,76.12c-.19-1.3-1.73-3.32-2.67-4.28l-2.51-2.59H70.63l-2.52,2.59c-.93,1-2.48,3-2.66,4.28v.1a1.15,1.15,0,0,0,.4,1.12,4.93,4.93,0,0,0,4.3.45,3.94,3.94,0,0,0,3-4.34c-.13-3.14-.79-7.19-2-14.54-.27-1.67-.57-3.52-.9-5.57a7.82,7.82,0,0,1,1.44-6.24C74.2,43.8,79.23,42.64,83,42.26l1.83-.19-.15,1.84c-.27,3.25-3,9.15-11.31,9.71.28,1.75.54,3.35.78,4.81,1.21,7.46,1.88,11.58,2,14.9A7,7,0,0,1,71,80.74a9.85,9.85,0,0,1-2.66.37,6.83,6.83,0,0,1-4.47-1.45,4.37,4.37,0,0,1-.82-.95,4.39,4.39,0,0,1-.82.95c-1.63,1.42-4.43,1.84-7.13,1.08a6.94,6.94,0,0,1-5.22-7.41c.14-3.32.8-7.43,2-14.87.24-1.47.5-3.08.78-4.84-8.31-.56-11-6.47-11.31-9.71l-.15-1.84,1.83.19c3.77.39,8.8,1.55,11.33,4.85a7.82,7.82,0,0,1,1.43,6.24c-.33,2.06-.63,3.92-.91,5.6-1.19,7.33-1.85,11.37-2,14.51a3.94,3.94,0,0,0,3,4.34,4.93,4.93,0,0,0,4.3-.45,1.14,1.14,0,0,0,.4-1.12ZM81.07,45.62c-3.34.62-5.78,1.78-7,3.35a4.37,4.37,0,0,0-.78,1.59c3.06-.23,5.35-1.34,6.82-3.31A8,8,0,0,0,81.07,45.62Zm-36.15,0c.82,1.9,2.85,4.55,7.77,4.94A4.38,4.38,0,0,0,51.91,49C50.7,47.39,48.26,46.23,44.92,45.61Z"/><path d="M63,111l-.88-.63C60.39,109.14,19.86,80.17,18.45,59c-1-14.57,5.36-25.31,18.83-31.95C34.37,24.48,27,19,13.82,15.22c.34,4.33,1.82,14.67,8.1,21.71l-2.28,2c-8.88-9.95-9-25.13-9-25.77v-2l1.91.49c20.18,5.22,28.19,14.44,28.52,14.83l1.33,1.56-1.88.83c-13.75,6.06-20,15.84-19,29.89,1.2,18.07,35.51,44,41.5,48.41,6-4.4,40.3-30.34,41.5-48.41.94-14.06-5.29-23.84-19-29.89l-1.88-.83,1.33-1.56c.33-.39,8.34-9.61,28.52-14.83l1.91-.49v2c0,.64-.1,15.83-9,25.77l-2.28-2c6.3-7.06,7.77-17.38,8.11-21.71C99,19,91.64,24.48,88.72,27.07c13.46,6.64,19.8,17.38,18.83,31.95-1.41,21.15-41.94,50.12-43.66,51.35Z"/><path d="M44.91,60.25C35.12,57.73,25.7,54.81,18,46.89,4.57,33,3.14,6.06,3.09,4.92L3,3l1.88.33c27.58,4.85,39.35,16.72,42.18,20a61.17,61.17,0,0,1,31.88,0c2.82-3.32,14.6-15.19,42.18-20L123,3l-.09,1.91c-.05,1.14-1.48,28.1-14.93,42-7.68,7.92-17.1,10.84-26.89,13.36l-.76-3c9.35-2.41,18.33-5.18,25.46-12.53,10.65-11,13.33-31.65,13.92-38-14.7,2.85-24.38,7.78-30,11.5-6.32,4.19-9,7.78-9,7.81l-.63.87-1-.3a58,58,0,0,0-32.14,0l-1,.31L45.26,26s-2.66-3.62-9-7.81c-5.6-3.72-15.29-8.65-30-11.5.59,6.4,3.27,27.07,13.92,38,7.13,7.35,16.11,10.12,25.46,12.53Z"/></svg>