<svg xmlns="http://www.w3.org/2000/svg" viewBox="0 0 50 50"><g id="Ebene_1"><path d="M37.32,17.16a9.87,9.87,0,0,1-2.9.82,5.17,5.17,0,0,0,2.22-2.87,10,10,0,0,1-3.21,1.26,5,5,0,0,0-3.69-1.64,5.12,5.12,0,0,0-5.06,5.18,5.31,5.31,0,0,0,.13,1.18,14.24,14.24,0,0,1-10.42-5.42A5.28,5.28,0,0,0,16,22.6,5,5,0,0,1,13.67,22s0,0,0,.07a5.16,5.16,0,0,0,4.06,5.08,5,5,0,0,1-1.33.18,4.89,4.89,0,0,1-1-.09,5.08,5.08,0,0,0,4.72,3.6,10,10,0,0,1-7.49,2.15,14.05,14.05,0,0,0,7.75,2.33c9.3,0,14.39-7.9,14.39-14.75q0-.34,0-.67a10.39,10.39,0,0,0,2.52-2.68ZM2.41.36H47.59a2.06,2.06,0,0,1,2.05,2.05V47.59a2.06,2.06,0,0,1-2.05,2.05H2.41A2.06,2.06,0,0,1,.36,47.59V2.41A2.06,2.06,0,0,1,2.41.36Zm0,2.05h0V47.59H47.59V2.41H2.41Z"/></g></svg>