<svg xmlns="http://www.w3.org/2000/svg" viewBox="0 0 50 50"><g><path d="M17.7,37.5V20.83h-5.2V37.5ZM15.09,17.71a2.51,2.51,0,0,0,2.62-2.6,2.5,2.5,0,0,0-2.59-2.6,2.51,2.51,0,0,0-2.62,2.6,2.49,2.49,0,0,0,2.56,2.6h0ZM20.83,37.5H26V28.08a4,4,0,0,1,.18-1.37,3.64,3.64,0,0,1,3.22-2.05c1.94,0,2.85,1.55,2.85,3.81v9H37.5V27.83c0-5.18-2.64-7.59-6.16-7.59A6.2,6.2,0,0,0,26,23.08h0V20.83H20.84c.07,1.58,0,16.67,0,16.67ZM2.08,0H47.92A2.09,2.09,0,0,1,50,2.08V47.92A2.09,2.09,0,0,1,47.92,50H2.08A2.09,2.09,0,0,1,0,47.92V2.08A2.09,2.09,0,0,1,2.08,0Zm0,2.08h0V47.91H47.92V2.09H2.09Z"/></g></svg>
