<svg xmlns="http://www.w3.org/2000/svg" viewBox="0 0 172 104"><defs><style>.cls-1{fill:#4ae871;}</style></defs><path class="cls-1" d="M12.28,13h5.9V40.8H33.57v5.34H12.28Z"/><path class="cls-1" d="M64.44,34a13.63,13.63,0,0,1-1,5.41,12.12,12.12,0,0,1-2.81,4.1,12.37,12.37,0,0,1-4.22,2.6,15.78,15.78,0,0,1-10.58,0,12.6,12.6,0,0,1-4.24-2.6,11.68,11.68,0,0,1-2.81-4.1,13.93,13.93,0,0,1-1-5.41V13h5.9v20.8A9.45,9.45,0,0,0,44,36.32a7.16,7.16,0,0,0,1.24,2.46,6.62,6.62,0,0,0,2.29,1.85,9,9,0,0,0,7.07,0,6.65,6.65,0,0,0,2.3-1.85,7.16,7.16,0,0,0,1.24-2.46,9.45,9.45,0,0,0,.38-2.55V13h5.9Z"/><path class="cls-1" d="M94.46,20.75a9.88,9.88,0,0,0-3.54-2.62,9.56,9.56,0,0,0-3.44-.66,11.49,11.49,0,0,0-4.66.91,10.65,10.65,0,0,0-3.58,2.53,11.48,11.48,0,0,0-2.32,3.77,12.93,12.93,0,0,0-.82,4.64,14.24,14.24,0,0,0,.82,4.92,11.54,11.54,0,0,0,2.32,3.89,10.78,10.78,0,0,0,3.58,2.58,11.23,11.23,0,0,0,4.66.94,8.56,8.56,0,0,0,3.91-1,10.66,10.66,0,0,0,3.54-3.07l4.87,3.47a13.27,13.27,0,0,1-5.48,4.5A17.09,17.09,0,0,1,87.44,47a19.39,19.39,0,0,1-7-1.24,15.79,15.79,0,0,1-9.16-9,18.4,18.4,0,0,1-1.31-7.07,19.2,19.2,0,0,1,1.31-7.24,16.22,16.22,0,0,1,3.63-5.55,15.93,15.93,0,0,1,5.53-3.54,19.39,19.39,0,0,1,7-1.24,16.16,16.16,0,0,1,6.25,1.19,14.59,14.59,0,0,1,5.36,4.05Z"/><path class="cls-1" d="M141.36,31.95,128.9,13h7.4l8.15,13.21L152.7,13h7l-12.46,19V46.14h-5.9Z"/><path class="cls-1" d="M12.28,57.86h21.4V63.2H18.18v8.71H32.79v5.34H18.18V91h-5.9Z"/><path class="cls-1" d="M37.38,74.58a19.2,19.2,0,0,1,1.31-7.24,16.22,16.22,0,0,1,3.63-5.55,15.93,15.93,0,0,1,5.53-3.54,19.39,19.39,0,0,1,7-1.24A19.69,19.69,0,0,1,62,58.17a15.56,15.56,0,0,1,5.57,3.49,16.13,16.13,0,0,1,3.65,5.53,19,19,0,0,1,1.31,7.21,18.4,18.4,0,0,1-1.31,7.07,16.22,16.22,0,0,1-3.65,5.48A16.68,16.68,0,0,1,62,90.53a19.73,19.73,0,0,1-7.12,1.34,19.39,19.39,0,0,1-7-1.24,15.79,15.79,0,0,1-9.16-9A18.4,18.4,0,0,1,37.38,74.58Zm6.18-.38a14.24,14.24,0,0,0,.82,4.92A11.54,11.54,0,0,0,46.7,83a10.78,10.78,0,0,0,3.58,2.58,11.23,11.23,0,0,0,4.66.94,11.4,11.4,0,0,0,4.68-.94A10.74,10.74,0,0,0,63.24,83a11.57,11.57,0,0,0,2.32-3.89,14.24,14.24,0,0,0,.82-4.92,12.93,12.93,0,0,0-.82-4.64,11.51,11.51,0,0,0-2.32-3.77,10.62,10.62,0,0,0-3.61-2.53,11.66,11.66,0,0,0-4.68-.91,11.49,11.49,0,0,0-4.66.91A10.65,10.65,0,0,0,46.7,65.8a11.48,11.48,0,0,0-2.32,3.77A12.93,12.93,0,0,0,43.56,74.21Z"/><polygon class="cls-1" points="118.61 12.98 126.43 12.98 111.07 28.29 127.61 46.14 119.32 46.14 103.4 28.29 118.61 12.98"/><polygon class="cls-1" points="82.17 57.86 74.35 57.86 87.76 73.09 87.76 73.28 73.18 91.02 81.47 91.02 91.6 78.15 101.72 91.02 110.01 91.02 82.17 57.86"/><polygon class="cls-1" points="98.74 69.47 108.84 57.86 101.02 57.86 94.96 64.95 98.74 69.47"/></svg>